<svg data-v-423bf9ae="" xmlns="http://www.w3.org/2000/svg" viewBox="0 0 153.74480312853365 60" class="font"><!----><!----><!----><g data-v-423bf9ae="" id="53ef1267-3532-4210-ad13-e7a9f269039a" fill="black" transform="matrix(6.028419768755809,0,0,6.028419768755809,-5.425578870694153,-22.046792658778735)"><path d="M2.13 13.02L2.13 13.02L2.13 13.02Q2.18 13.31 2.14 13.41L2.14 13.41L2.14 13.41Q2.09 13.50 2.02 13.51L2.02 13.51L2.02 13.51Q1.98 13.52 1.95 13.51L1.95 13.51L1.95 13.51Q1.92 13.51 1.88 13.50L1.88 13.50L1.88 13.50Q1.85 13.50 1.80 13.51L1.80 13.51L1.80 13.51Q1.76 13.51 1.71 13.54L1.71 13.54L1.71 13.54Q1.60 13.60 1.49 13.58L1.49 13.58L1.49 13.58Q1.39 13.56 1.18 13.46L1.18 13.46L1.18 13.46Q1.07 13.42 1.02 13.39L1.02 13.39L1.02 13.39Q0.97 13.36 0.95 13.34L0.95 13.34L0.95 13.34Q0.93 13.32 0.93 13.29L0.93 13.29L0.93 13.29Q0.94 13.27 0.94 13.23L0.94 13.23L0.94 13.23Q0.90 12.88 0.90 12.34L0.90 12.34L0.90 12.34Q0.90 11.98 0.91 11.57L0.91 11.57L0.91 11.57Q0.92 11.16 0.94 10.76L0.94 10.76L0.94 10.76Q0.95 10.36 0.96 9.99L0.96 9.99L0.96 9.99Q0.98 9.63 0.98 9.34L0.98 9.34L0.98 9.34Q0.98 9.08 0.99 8.63L0.99 8.63L0.99 8.63Q1.00 8.18 1.02 7.66L1.02 7.66L1.02 7.66Q1.03 7.13 1.05 6.58L1.05 6.58L1.05 6.58Q1.07 6.03 1.09 5.57L1.09 5.57L1.09 5.57Q1.11 5.11 1.13 4.80L1.13 4.80L1.13 4.80Q1.14 4.48 1.15 4.43L1.15 4.43L1.15 4.43Q1.15 4.35 1.19 4.28L1.19 4.28L1.19 4.28Q1.22 4.22 1.26 4.23L1.26 4.23L1.26 4.23Q1.35 4.23 1.37 4.20L1.37 4.20L1.37 4.20Q1.39 4.18 1.43 4.18L1.43 4.18L1.43 4.18Q1.51 4.16 1.58 4.17L1.58 4.17L1.58 4.17Q1.64 4.18 1.64 4.16L1.64 4.16L1.64 4.16Q1.65 4.12 1.69 4.11L1.69 4.11L1.69 4.11Q1.72 4.09 1.78 4.09L1.78 4.09L1.78 4.09Q1.85 4.11 1.93 4.16L1.93 4.16L1.93 4.16Q2.02 4.22 2.07 4.33L2.07 4.33L2.07 4.33Q2.08 4.37 2.10 4.54L2.10 4.54L2.10 4.54Q2.11 4.72 2.11 4.98L2.11 4.98L2.11 4.98Q2.12 5.24 2.12 5.56L2.12 5.56L2.12 5.56Q2.13 5.88 2.13 6.21L2.13 6.21L2.13 6.21Q2.13 6.49 2.12 6.76L2.12 6.76L2.12 6.76Q2.12 7.03 2.12 7.25L2.12 7.25L2.12 7.25Q2.12 7.46 2.12 7.62L2.12 7.62L2.12 7.62Q2.11 7.77 2.11 7.83L2.11 7.83L2.11 7.83Q2.09 8.22 2.09 8.63L2.09 8.63L2.09 8.63Q2.08 9.04 2.08 9.45L2.08 9.45L2.08 9.45Q2.08 10.01 2.07 10.55L2.07 10.55L2.07 10.55Q2.06 11.09 2.06 11.56L2.06 11.56L2.06 11.56Q2.06 12.03 2.07 12.41L2.07 12.41L2.07 12.41Q2.08 12.79 2.13 13.02ZM8.50 4.19L8.50 4.19L8.50 4.19Q8.27 4.19 7.92 4.27L7.92 4.27L7.92 4.27Q7.57 4.35 7.17 4.56L7.17 4.56L7.17 4.56Q6.77 4.76 6.38 5.10L6.38 5.10L6.38 5.10Q5.98 5.44 5.66 5.95L5.66 5.95L5.66 5.95Q5.35 6.47 5.14 7.17L5.14 7.17L5.14 7.17Q4.94 7.87 4.94 8.80L4.94 8.80L4.94 8.80Q4.94 9.55 5.10 10.13L5.10 10.13L5.10 10.13Q5.25 10.72 5.51 11.16L5.51 11.16L5.51 11.16Q5.77 11.59 6.11 11.90L6.11 11.90L6.11 11.90Q6.45 12.20 6.82 12.39L6.82 12.39L6.82 12.39Q7.19 12.58 7.56 12.66L7.56 12.66L7.56 12.66Q7.94 12.74 8.27 12.74L8.27 12.74L8.27 12.74Q8.35 12.74 8.42 12.74L8.42 12.74L8.42 12.74Q8.49 12.74 8.57 12.73L8.57 12.73L8.57 12.73Q8.71 12.69 8.90 12.62L8.90 12.62L8.90 12.62Q9.10 12.55 9.31 12.43L9.31 12.43L9.31 12.43Q9.52 12.32 9.73 12.15L9.73 12.15L9.73 12.15Q9.93 11.98 10.10 11.73L10.10 11.73L10.10 11.73Q10.27 11.49 10.38 11.18L10.38 11.18L10.38 11.18Q10.49 10.86 10.50 10.45L10.50 10.45L10.50 10.45Q10.51 10.08 10.41 9.87L10.41 9.87L10.41 9.87Q10.32 9.66 10.22 9.55L10.22 9.55L9.84 9.60L9.84 9.60Q9.54 9.64 9.22 9.71L9.22 9.71L9.22 9.71Q8.91 9.79 8.63 9.86L8.63 9.86L8.63 9.86Q8.35 9.94 8.12 9.99L8.12 9.99L8.12 9.99Q7.90 10.05 7.77 10.04L7.77 10.04L7.77 10.04Q7.66 10.04 7.57 10.01L7.57 10.01L7.57 10.01Q7.49 9.99 7.41 9.94L7.41 9.94L7.41 9.94Q7.32 9.90 7.27 9.82L7.27 9.82L7.27 9.82Q7.23 9.84 7.21 9.84L7.21 9.84L7.21 9.84Q7.19 9.84 7.18 9.83L7.18 9.83L7.18 9.83Q7.16 9.82 7.15 9.80L7.15 9.80L7.15 9.80Q7.14 9.78 7.14 9.75L7.14 9.75L7.14 9.75Q7.12 9.69 7.12 9.57L7.12 9.57L7.12 9.57Q7.09 9.57 7.05 9.54L7.05 9.54L7.05 9.54Q7.03 9.53 7.01 9.51L7.01 9.51L7.01 9.51Q6.98 9.45 6.95 9.40L6.95 9.40L6.95 9.40Q6.92 9.34 6.96 9.30L6.96 9.30L6.96 9.30Q6.97 9.28 7.08 9.22L7.08 9.22L7.08 9.22Q7.18 9.16 7.42 9.08L7.42 9.08L7.42 9.08Q7.67 9.00 8.09 8.89L8.09 8.89L8.09 8.89Q8.51 8.78 9.17 8.65L9.17 8.65L9.17 8.65Q10.01 8.50 10.64 8.44L10.64 8.44L10.64 8.44Q11.26 8.39 11.65 8.39L11.65 8.39L11.65 8.39Q11.87 8.39 12.00 8.40L12.00 8.40L12.00 8.40Q12.14 8.41 12.21 8.42L12.21 8.42L12.21 8.42Q12.37 8.46 12.46 8.52L12.46 8.52L12.46 8.52Q12.56 8.59 12.61 8.64L12.61 8.64L12.61 8.64Q12.64 8.67 12.67 8.71L12.67 8.71L12.67 8.71Q12.71 8.77 12.78 8.93L12.78 8.93L12.78 8.93Q12.86 8.96 12.89 9.02L12.89 9.02L12.89 9.02Q12.90 9.04 12.89 9.06L12.89 9.06L12.89 9.06Q12.88 9.13 12.86 9.23L12.86 9.23L12.86 9.23Q12.84 9.33 12.80 9.33L12.80 9.33L12.80 9.33Q12.78 9.34 12.66 9.34L12.66 9.34L12.66 9.34Q12.54 9.35 12.34 9.37L12.34 9.37L12.34 9.37Q12.14 9.38 11.88 9.40L11.88 9.40L11.88 9.40Q11.63 9.41 11.34 9.44L11.34 9.44L11.34 9.44Q11.48 9.60 11.57 9.82L11.57 9.82L11.57 9.82Q11.67 10.04 11.70 10.29L11.70 10.29L11.70 10.29Q11.75 10.63 11.64 11.01L11.64 11.01L11.64 11.01Q11.53 11.38 11.29 11.75L11.29 11.75L11.29 11.75Q11.05 12.12 10.70 12.46L10.70 12.46L10.70 12.46Q10.34 12.80 9.90 13.05L9.90 13.05L9.90 13.05Q9.46 13.31 8.94 13.46L8.94 13.46L8.94 13.46Q8.42 13.61 7.85 13.61L7.85 13.61L7.85 13.61Q7.53 13.61 7.17 13.56L7.17 13.56L7.17 13.56Q6.81 13.51 6.43 13.40L6.43 13.40L6.43 13.40Q6.06 13.28 5.67 13.08L5.67 13.08L5.67 13.08Q5.28 12.88 4.90 12.58L4.90 12.58L4.90 12.58Q4.17 12.01 3.81 11.11L3.81 11.11L3.81 11.11Q3.46 10.21 3.47 8.91L3.47 8.91L3.47 8.91Q3.47 8.35 3.65 7.76L3.65 7.76L3.65 7.76Q3.83 7.16 4.17 6.59L4.17 6.59L4.17 6.59Q4.50 6.02 4.96 5.51L4.96 5.51L4.96 5.51Q5.42 4.99 5.98 4.59L5.98 4.59L5.98 4.59Q6.55 4.20 7.20 3.95L7.20 3.95L7.20 3.95Q7.85 3.71 8.57 3.68L8.57 3.68L8.57 3.68Q8.79 3.68 9.09 3.72L9.09 3.72L9.09 3.72Q9.39 3.75 9.70 3.83L9.70 3.83L9.70 3.83Q10.02 3.91 10.33 4.03L10.33 4.03L10.33 4.03Q10.64 4.16 10.89 4.33L10.89 4.33L10.89 4.33Q11.15 4.51 11.32 4.75L11.32 4.75L11.32 4.75Q11.49 4.98 11.53 5.28L11.53 5.28L11.53 5.28Q11.58 5.63 11.49 5.91L11.49 5.91L11.49 5.91Q11.40 6.19 11.23 6.38L11.23 6.38L11.23 6.38Q11.07 6.58 10.89 6.68L10.89 6.68L10.89 6.68Q10.71 6.77 10.57 6.77L10.57 6.77L10.57 6.77Q10.47 6.83 10.40 6.86L10.40 6.86L10.40 6.86Q10.34 6.88 10.28 6.89L10.28 6.89L10.28 6.89Q10.22 6.90 10.18 6.89L10.18 6.89L10.18 6.89Q10.13 6.87 10.10 6.84L10.10 6.84L10.10 6.84Q10.08 6.80 10.07 6.76L10.07 6.76L10.07 6.76Q10.06 6.71 10.09 6.64L10.09 6.64L10.09 6.64Q9.94 6.80 9.84 6.88L9.84 6.88L9.84 6.88Q9.74 6.95 9.68 6.98L9.68 6.98L9.68 6.98Q9.60 7.01 9.56 6.99L9.56 6.99L9.56 6.99Q9.50 6.95 9.54 6.92L9.54 6.92L9.54 6.92Q9.58 6.88 9.67 6.82L9.67 6.82L9.67 6.82Q9.75 6.75 9.87 6.63L9.87 6.63L9.87 6.63Q9.99 6.51 10.08 6.30L10.08 6.30L10.08 6.30Q10.12 6.16 10.15 5.97L10.15 5.97L10.15 5.97Q10.19 5.79 10.19 5.59L10.19 5.59L10.19 5.59Q10.19 5.22 10.06 4.95L10.06 4.95L10.06 4.95Q9.92 4.68 9.69 4.51L9.69 4.51L9.69 4.51Q9.46 4.34 9.15 4.27L9.15 4.27L9.15 4.27Q8.85 4.19 8.50 4.19ZM15.42 3.95L15.42 3.95L15.42 3.95Q15.42 5.19 15.37 6.46L15.37 6.46L15.37 6.46Q15.32 7.74 15.30 9.00L15.30 9.00L15.30 9.00Q15.29 9.57 15.31 10.13L15.31 10.13L15.31 10.13Q15.33 10.70 15.35 11.21L15.35 11.21L15.35 11.21Q15.37 11.72 15.39 12.14L15.39 12.14L15.39 12.14Q15.42 12.56 15.42 12.84L15.42 12.84L15.42 12.84Q15.42 13.04 15.40 13.16L15.40 13.16L15.40 13.16Q15.39 13.28 15.35 13.30L15.35 13.30L15.35 13.30Q15.32 13.34 15.29 13.34L15.29 13.34L15.29 13.34Q15.26 13.35 15.24 13.35L15.24 13.35L15.24 13.35Q15.21 13.35 15.18 13.35L15.18 13.35L15.18 13.35Q15.15 13.34 15.11 13.36L15.11 13.36L15.11 13.36Q15.06 13.38 15.05 13.41L15.05 13.41L15.05 13.41Q15.03 13.43 15.02 13.46L15.02 13.46L15.02 13.46Q15.00 13.49 14.98 13.51L14.98 13.51L14.98 13.51Q14.95 13.54 14.88 13.57L14.88 13.57L14.88 13.57Q14.79 13.59 14.71 13.52L14.71 13.52L14.71 13.52Q14.64 13.46 14.56 13.42L14.56 13.42L14.56 13.42Q14.44 13.35 14.37 13.31L14.37 13.31L14.37 13.31Q14.30 13.26 14.24 13.17L14.24 13.17L14.24 13.17Q14.19 13.08 14.16 12.92L14.16 12.92L14.16 12.92Q14.12 12.75 14.10 12.52L14.10 12.52L14.10 12.52Q14.08 12.29 14.08 12.01L14.08 12.01L14.08 12.01Q14.07 11.73 14.07 11.43L14.07 11.43L14.07 11.43Q14.07 11.09 14.08 10.74L14.08 10.74L14.08 10.74Q14.08 10.40 14.09 10.08L14.09 10.08L14.09 10.08Q14.10 9.77 14.11 9.52L14.11 9.52L14.11 9.52Q14.12 9.26 14.12 9.11L14.12 9.11L14.12 9.11Q14.14 8.61 14.16 8.07L14.16 8.07L14.16 8.07Q14.18 7.53 14.21 7.00L14.21 7.00L14.21 7.00Q14.23 6.46 14.26 5.96L14.26 5.96L14.26 5.96Q14.29 5.46 14.31 5.05L14.31 5.05L14.31 5.05Q14.34 4.63 14.37 4.34L14.37 4.34L14.37 4.34Q14.39 4.05 14.42 3.94L14.42 3.94L14.42 3.94Q14.46 3.79 14.56 3.77L14.56 3.77L14.56 3.77Q14.61 3.75 14.64 3.78L14.64 3.78L14.64 3.78Q14.67 3.81 14.71 3.75L14.71 3.75L14.71 3.75Q14.72 3.71 14.75 3.71L14.75 3.71L14.75 3.71Q14.78 3.70 14.81 3.70L14.81 3.70L14.81 3.70Q14.83 3.70 14.86 3.70L14.86 3.70L14.86 3.70Q14.89 3.70 14.91 3.68L14.91 3.68L14.91 3.68Q14.95 3.64 14.99 3.67L14.99 3.67L14.99 3.67Q15.04 3.69 15.06 3.71L15.06 3.71L15.06 3.71Q15.08 3.76 15.11 3.78L15.11 3.78L15.11 3.78Q15.15 3.81 15.19 3.77L15.19 3.77L15.19 3.77Q15.21 3.75 15.25 3.75L15.25 3.75L15.25 3.75Q15.29 3.75 15.30 3.79L15.30 3.79L15.30 3.79Q15.32 3.82 15.37 3.86L15.37 3.86L15.37 3.86Q15.42 3.89 15.42 3.95ZM22.00 4.19L22.00 4.19L22.00 4.19Q21.78 4.19 21.43 4.27L21.43 4.27L21.43 4.27Q21.08 4.35 20.68 4.56L20.68 4.56L20.68 4.56Q20.28 4.76 19.89 5.10L19.89 5.10L19.89 5.10Q19.49 5.44 19.17 5.95L19.17 5.95L19.17 5.95Q18.85 6.47 18.65 7.17L18.65 7.17L18.65 7.17Q18.45 7.87 18.45 8.80L18.45 8.80L18.45 8.80Q18.45 9.55 18.60 10.13L18.60 10.13L18.60 10.13Q18.76 10.72 19.02 11.16L19.02 11.16L19.02 11.16Q19.28 11.59 19.62 11.90L19.62 11.90L19.62 11.90Q19.95 12.20 20.33 12.39L20.33 12.39L20.33 12.39Q20.70 12.58 21.07 12.66L21.07 12.66L21.07 12.66Q21.44 12.74 21.78 12.74L21.78 12.74L21.78 12.74Q21.85 12.74 21.93 12.74L21.93 12.74L21.93 12.74Q22.00 12.74 22.07 12.73L22.07 12.73L22.07 12.73Q22.22 12.69 22.41 12.62L22.41 12.62L22.41 12.62Q22.61 12.55 22.82 12.43L22.82 12.43L22.82 12.43Q23.03 12.32 23.24 12.15L23.24 12.15L23.24 12.15Q23.44 11.98 23.61 11.73L23.61 11.73L23.61 11.73Q23.78 11.49 23.88 11.18L23.88 11.18L23.88 11.18Q23.99 10.86 24.01 10.45L24.01 10.45L24.01 10.45Q24.01 10.08 23.92 9.87L23.92 9.87L23.92 9.87Q23.83 9.66 23.73 9.55L23.73 9.55L23.34 9.60L23.34 9.60Q23.04 9.64 22.73 9.71L22.73 9.71L22.73 9.71Q22.42 9.79 22.13 9.86L22.13 9.86L22.13 9.86Q21.85 9.94 21.63 9.99L21.63 9.99L21.63 9.99Q21.40 10.05 21.27 10.04L21.27 10.04L21.27 10.04Q21.17 10.04 21.08 10.01L21.08 10.01L21.08 10.01Q21 9.99 20.91 9.94L20.91 9.94L20.91 9.94Q20.83 9.90 20.77 9.82L20.77 9.82L20.77 9.82Q20.74 9.84 20.72 9.84L20.72 9.84L20.72 9.84Q20.70 9.84 20.69 9.83L20.69 9.83L20.69 9.83Q20.67 9.82 20.66 9.80L20.66 9.80L20.66 9.80Q20.65 9.78 20.64 9.75L20.64 9.75L20.64 9.75Q20.63 9.69 20.63 9.57L20.63 9.57L20.63 9.57Q20.60 9.57 20.56 9.54L20.56 9.54L20.56 9.54Q20.54 9.53 20.52 9.51L20.52 9.51L20.52 9.51Q20.49 9.45 20.46 9.40L20.46 9.40L20.46 9.40Q20.43 9.34 20.47 9.30L20.47 9.30L20.47 9.30Q20.48 9.28 20.58 9.22L20.58 9.22L20.58 9.22Q20.69 9.16 20.93 9.08L20.93 9.08L20.93 9.08Q21.18 9.00 21.60 8.89L21.60 8.89L21.60 8.89Q22.02 8.78 22.67 8.65L22.67 8.65L22.67 8.65Q23.52 8.50 24.14 8.44L24.14 8.44L24.14 8.44Q24.77 8.39 25.16 8.39L25.16 8.39L25.16 8.39Q25.38 8.39 25.51 8.40L25.51 8.40L25.51 8.40Q25.65 8.41 25.72 8.42L25.72 8.42L25.72 8.42Q25.87 8.46 25.97 8.52L25.97 8.52L25.97 8.52Q26.07 8.59 26.12 8.64L26.12 8.64L26.12 8.64Q26.15 8.67 26.17 8.71L26.17 8.71L26.17 8.71Q26.22 8.77 26.29 8.93L26.29 8.93L26.29 8.93Q26.37 8.96 26.39 9.02L26.39 9.02L26.39 9.02Q26.41 9.04 26.40 9.06L26.40 9.06L26.40 9.06Q26.39 9.13 26.37 9.23L26.37 9.23L26.37 9.23Q26.35 9.33 26.30 9.33L26.30 9.33L26.30 9.33Q26.28 9.34 26.16 9.34L26.16 9.34L26.16 9.34Q26.04 9.35 25.85 9.37L25.85 9.37L25.85 9.37Q25.65 9.38 25.39 9.40L25.39 9.40L25.39 9.40Q25.14 9.41 24.85 9.44L24.85 9.44L24.85 9.44Q24.99 9.60 25.08 9.82L25.08 9.82L25.08 9.82Q25.18 10.04 25.21 10.29L25.21 10.29L25.21 10.29Q25.26 10.63 25.15 11.01L25.15 11.01L25.15 11.01Q25.03 11.38 24.80 11.75L24.80 11.75L24.80 11.75Q24.56 12.12 24.21 12.46L24.21 12.46L24.21 12.46Q23.85 12.80 23.41 13.05L23.41 13.05L23.41 13.05Q22.97 13.31 22.45 13.46L22.45 13.46L22.45 13.46Q21.93 13.61 21.36 13.61L21.36 13.61L21.36 13.61Q21.03 13.61 20.68 13.56L20.68 13.56L20.68 13.56Q20.32 13.51 19.94 13.40L19.94 13.40L19.94 13.40Q19.56 13.28 19.18 13.08L19.18 13.08L19.18 13.08Q18.79 12.88 18.41 12.58L18.41 12.58L18.41 12.58Q17.68 12.01 17.32 11.11L17.32 11.11L17.32 11.11Q16.97 10.21 16.98 8.91L16.98 8.91L16.98 8.91Q16.98 8.35 17.16 7.76L17.16 7.76L17.16 7.76Q17.34 7.16 17.67 6.59L17.67 6.59L17.67 6.59Q18.01 6.02 18.47 5.51L18.47 5.51L18.47 5.51Q18.93 4.99 19.49 4.59L19.49 4.59L19.49 4.59Q20.06 4.20 20.71 3.95L20.71 3.95L20.71 3.95Q21.36 3.71 22.07 3.68L22.07 3.68L22.07 3.68Q22.30 3.68 22.60 3.72L22.60 3.72L22.60 3.72Q22.89 3.75 23.21 3.83L23.21 3.83L23.21 3.83Q23.53 3.91 23.84 4.03L23.84 4.03L23.84 4.03Q24.14 4.16 24.40 4.33L24.40 4.33L24.40 4.33Q24.66 4.51 24.83 4.75L24.83 4.75L24.83 4.75Q25.00 4.98 25.04 5.28L25.04 5.28L25.04 5.28Q25.09 5.63 25.00 5.91L25.00 5.91L25.00 5.91Q24.90 6.19 24.74 6.38L24.74 6.38L24.74 6.38Q24.58 6.58 24.40 6.68L24.40 6.68L24.40 6.68Q24.21 6.77 24.08 6.77L24.08 6.77L24.08 6.77Q23.98 6.83 23.91 6.86L23.91 6.86L23.91 6.86Q23.84 6.88 23.79 6.89L23.79 6.89L23.79 6.89Q23.73 6.90 23.69 6.89L23.69 6.89L23.69 6.89Q23.64 6.87 23.61 6.84L23.61 6.84L23.61 6.84Q23.58 6.80 23.57 6.76L23.57 6.76L23.57 6.76Q23.56 6.71 23.60 6.64L23.60 6.64L23.60 6.64Q23.45 6.80 23.35 6.88L23.35 6.88L23.35 6.88Q23.25 6.95 23.19 6.98L23.19 6.98L23.19 6.98Q23.11 7.01 23.07 6.99L23.07 6.99L23.07 6.99Q23.01 6.95 23.05 6.92L23.05 6.92L23.05 6.92Q23.08 6.88 23.17 6.82L23.17 6.82L23.17 6.82Q23.26 6.75 23.38 6.63L23.38 6.63L23.38 6.63Q23.50 6.51 23.58 6.30L23.58 6.30L23.58 6.30Q23.63 6.16 23.66 5.97L23.66 5.97L23.66 5.97Q23.70 5.79 23.70 5.59L23.70 5.59L23.70 5.59Q23.70 5.22 23.56 4.95L23.56 4.95L23.56 4.95Q23.43 4.68 23.20 4.51L23.20 4.51L23.20 4.51Q22.97 4.34 22.66 4.27L22.66 4.27L22.66 4.27Q22.35 4.19 22.00 4.19Z"></path></g><!----><!----></svg>