<svg width="660" height="560" viewBox="0 0 660 560" fill="none" xmlns="http://www.w3.org/2000/svg">
<g clip-path="url(#clip0_640_7253)">
<path d="M-148.835 480.145C-119.489 477.56 46.575 413.476 70.618 388.152C94.661 362.828 106.872 300.267 114.546 265.031C122.22 229.795 135.046 220.419 153.131 176.174C171.216 131.929 181.231 108.108 184.431 96.474C187.631 84.84 192.87 66.867 195.424 58.411C199.074 46.329 230.004 45.588 230.734 91.321C231.464 137.054 219.034 194.074 213.507 227.126C243.219 206.518 351.334 175.9 351.334 175.9C351.334 175.9 399.875 386 353.751 433.253C307.627 480.506 269.08 535.918 184.387 546.253C174.125 547.5 -82.995 668.321 -82.995 668.321L-148.835 480.145Z" fill="url(#paint0_linear_640_7253)"/>
<path d="M226.891 219.532L213.505 227.125C213.505 227.125 222.895 275.556 230.684 321.23C238.473 366.904 218.157 419.338 217.505 449.062C216.853 478.786 224.1 497.409 203.795 516.416C191.611 527.816 179.517 529.974 171.795 529.872C164.024 529.82 156.301 531.082 148.951 533.605L-100.749 617.58L-82.995 668.321C-82.995 668.321 174.125 547.5 184.387 546.248C269.08 535.916 307.628 480.503 353.751 433.248C399.874 385.993 351.334 175.9 351.334 175.9C351.334 175.9 267.083 199.761 226.891 219.532Z" fill="url(#paint1_linear_640_7253)"/>
<path d="M435.994 354.509C459.329 353.694 492.941 358.277 492.186 381.933C491.431 405.589 464.325 406.595 441.367 406.355C418.409 406.115 428.214 354.781 435.994 354.509Z" fill="#FFBE92"/>
<path d="M441.654 319.615C450.054 349.415 465.11 366.326 481.283 362.889C497.456 359.452 497.86 345.761 493.806 327.17C489.752 308.579 488.121 289.621 468.137 272.203C448.153 254.785 433.22 270.724 433.22 270.724C433.22 270.724 434.958 295.848 441.654 319.615Z" fill="#FFBE92"/>
<path d="M491.564 316.3C489.147 316.061 486.71 316.449 484.486 317.425C480.588 319.056 476.981 321.309 473.806 324.097C472.079 325.545 467.298 334.408 464.258 342.997C460.388 353.925 469.715 365.227 481.078 362.932L481.283 362.89C497.456 359.453 497.86 345.762 493.806 327.171C493.018 323.557 492.321 319.93 491.564 316.3Z" fill="#FFD4BF"/>
<path d="M449.607 211.2C465.242 216.266 483.723 219.663 489.613 229.922C495.503 240.181 505.658 290.585 494.891 301.606C482.884 313.899 466.478 305.883 451.927 275.252C437.376 244.621 449.607 211.2 449.607 211.2Z" fill="#FFD4BF"/>
<path d="M447.688 132.057C475.214 153.606 502.524 177.174 492.813 191.232C483.102 205.29 452.313 203.339 422.757 175.687C393.201 148.035 447.688 132.057 447.688 132.057Z" fill="#FFD4BF"/>
<path d="M468.106 190.872C465.591 185.422 463.887 179.635 463.046 173.692C462.383 168.539 462.504 163 464.602 158.165C465.865 155.241 467.902 152.717 470.493 150.865C463.493 144.612 455.599 138.252 447.688 132.058C447.688 132.058 393.196 148.037 422.757 175.689C440.663 192.438 459.01 199.744 472.857 199.789C471.069 196.93 469.481 193.951 468.106 190.872Z" fill="#FFBE92"/>
<path d="M426.23 57.127H268.029C249.223 57.127 233.977 72.3726 233.977 91.179V461.809C233.977 480.615 249.223 495.861 268.029 495.861H426.23C445.036 495.861 460.282 480.615 460.282 461.809V91.179C460.282 72.3726 445.036 57.127 426.23 57.127Z" fill="#24272A"/>
<path d="M422.941 53.057H264.74C245.934 53.057 230.688 68.3026 230.688 87.109V457.739C230.688 476.545 245.934 491.791 264.74 491.791H422.941C441.747 491.791 456.993 476.545 456.993 457.739V87.109C456.993 68.3026 441.747 53.057 422.941 53.057Z" fill="#1C3D6E"/>
<path d="M426.121 478.565C425.062 478.725 423.992 478.804 422.921 478.803L264.721 478.79C259.138 478.783 253.786 476.562 249.838 472.614C245.891 468.667 243.671 463.314 243.665 457.731L243.7 87.1C243.723 82.0746 245.532 77.2211 248.805 73.4073C252.077 69.5934 256.599 67.0678 261.563 66.282C262.622 66.1231 263.692 66.0435 264.763 66.044L422.963 66.057C425.728 66.0569 428.467 66.6015 431.022 67.6598C433.577 68.7181 435.898 70.2694 437.853 72.2249C439.809 74.1805 441.359 76.5021 442.417 79.0572C443.475 81.6122 444.02 84.3506 444.019 87.116L443.989 457.747C443.966 462.773 442.156 467.627 438.883 471.441C435.609 475.255 431.086 477.78 426.121 478.565Z" fill="#8ECAF4"/>
<mask id="mask0_640_7253" style="mask-type:luminance" maskUnits="userSpaceOnUse" x="243" y="66" width="202" height="413">
<path d="M426.121 478.565C425.062 478.725 423.992 478.804 422.921 478.803L264.721 478.79C259.138 478.783 253.786 476.562 249.838 472.614C245.891 468.667 243.671 463.314 243.665 457.731L243.7 87.1C243.723 82.0746 245.532 77.2211 248.805 73.4073C252.077 69.5934 256.599 67.0678 261.563 66.282C262.622 66.1231 263.692 66.0435 264.763 66.044L422.963 66.057C425.728 66.0569 428.467 66.6015 431.022 67.6598C433.577 68.7181 435.898 70.2694 437.853 72.2249C439.809 74.1805 441.359 76.5021 442.417 79.0572C443.475 81.6122 444.02 84.3506 444.019 87.116L443.989 457.747C443.966 462.773 442.156 467.627 438.883 471.441C435.609 475.255 431.086 477.78 426.121 478.565Z" fill="white"/>
</mask>
<g mask="url(#mask0_640_7253)">
<path d="M443.944 53.356H243.504V487.643H443.944V53.356Z" fill="#69B8F0"/>
<path d="M343.75 109.666C324.025 109.646 304.591 114.428 287.126 123.598C269.662 132.768 254.692 146.051 243.509 162.3L243.456 394.43L243.42 487.6L443.86 487.678L443.9 394.5L443.953 162.37C432.781 146.113 417.821 132.82 400.363 123.637C382.906 114.455 363.475 109.66 343.75 109.666Z" fill="white"/>
<path d="M410.909 455.669C410.909 449.766 406.124 444.981 400.22 444.981C394.317 444.981 389.532 449.766 389.532 455.669C389.532 461.573 394.317 466.358 400.22 466.358C406.124 466.358 410.909 461.573 410.909 455.669Z" fill="#DAEDFB"/>
<path d="M354.341 455.647C354.341 449.744 349.556 444.959 343.653 444.959C337.75 444.959 332.964 449.744 332.964 455.647C332.964 461.551 337.75 466.336 343.653 466.336C349.556 466.336 354.341 461.551 354.341 455.647Z" fill="#DAEDFB"/>
<path d="M297.772 455.625C297.772 449.722 292.987 444.937 287.084 444.937C281.18 444.937 276.395 449.722 276.395 455.625C276.395 461.529 281.18 466.314 287.084 466.314C292.987 466.314 297.772 461.529 297.772 455.625Z" fill="#DAEDFB"/>
</g>
<path d="M267.71 66.045H296.194C296.705 66.045 297.211 66.1457 297.683 66.3412C298.155 66.5368 298.584 66.8234 298.945 67.1847C299.306 67.546 299.593 67.975 299.788 68.4471C299.984 68.9191 300.084 69.4251 300.084 69.936L299.756 80.064C299.756 80.8049 299.902 81.5385 300.185 82.223C300.469 82.9075 300.884 83.5295 301.408 84.0534C301.932 84.5774 302.554 84.993 303.238 85.2765C303.922 85.5601 304.656 85.706 305.397 85.706L382.489 85.712C383.23 85.7121 383.963 85.5664 384.648 85.283C385.332 84.9996 385.954 84.5842 386.478 84.0604C387.002 83.5367 387.417 82.9149 387.701 82.2306C387.984 81.5462 388.13 80.8127 388.13 80.072L388.459 69.943C388.459 68.9113 388.869 67.9219 389.598 67.1924C390.328 66.4628 391.317 66.053 392.349 66.053H420.834L333.044 58.484L267.71 66.045Z" fill="#1C3D6E"/>
<path d="M467.019 239.292C448.336 257.498 450.719 282.131 464.411 295.666L467.019 239.292Z" fill="#FFD4BF"/>
<path d="M322.221 154.972L339.606 141.972L346.849 147.388V144.86H352.649V151.721L356.995 154.97V178.677C356.997 179.355 356.865 180.027 356.607 180.655C356.349 181.282 355.97 181.852 355.492 182.333C355.014 182.814 354.445 183.196 353.819 183.457C353.194 183.719 352.522 183.854 351.844 183.856H349.027C348.867 184.999 349.059 186.165 349.577 187.196C350.095 188.228 350.914 189.078 351.927 189.633C350.127 190.305 345.772 189.975 341.904 183.855H327.372C326.694 183.853 326.022 183.718 325.396 183.456C324.771 183.195 324.202 182.813 323.724 182.332C323.246 181.851 322.867 181.281 322.609 180.654C322.351 180.026 322.219 179.354 322.221 178.676V154.972Z" fill="url(#paint2_linear_640_7253)"/>
<path d="M409.224 229.315L278.207 229.283C276.254 229.282 274.32 229.666 272.516 230.413C270.711 231.159 269.072 232.254 267.69 233.634C266.309 235.015 265.213 236.654 264.465 238.458C263.717 240.262 263.332 242.195 263.331 244.148C263.33 246.101 263.715 248.035 264.461 249.84C265.208 251.644 266.303 253.284 267.684 254.666C269.065 256.047 270.704 257.143 272.509 257.89C274.313 258.638 276.247 259.023 278.2 259.023L409.218 259.055C411.171 259.056 413.105 258.672 414.909 257.926C416.713 257.179 418.353 256.084 419.734 254.704C421.116 253.324 422.212 251.685 422.959 249.881C423.707 248.077 424.093 246.144 424.093 244.191C424.094 242.238 423.71 240.304 422.963 238.499C422.216 236.694 421.121 235.055 419.74 233.673C418.359 232.292 416.72 231.196 414.915 230.448C413.111 229.7 411.177 229.315 409.224 229.315Z" fill="#DAEDFB"/>
<path d="M409.224 277.334L278.207 277.3C276.254 277.299 274.32 277.683 272.516 278.429C270.711 279.176 269.072 280.271 267.69 281.651C266.309 283.031 265.213 284.67 264.465 286.474C263.717 288.278 263.332 290.211 263.331 292.164C263.33 294.117 263.714 296.052 264.461 297.857C265.208 299.661 266.303 301.302 267.684 302.683C269.064 304.065 270.704 305.161 272.508 305.909C274.313 306.657 276.247 307.042 278.2 307.042L409.218 307.074C411.171 307.075 413.105 306.691 414.909 305.944C416.713 305.197 418.353 304.103 419.734 302.722C421.115 301.342 422.211 299.703 422.959 297.899C423.707 296.095 424.092 294.162 424.093 292.209C424.094 290.256 423.71 288.322 422.963 286.517C422.216 284.712 421.121 283.073 419.74 281.691C418.359 280.31 416.72 279.214 414.916 278.466C413.111 277.719 411.177 277.334 409.224 277.334Z" fill="#DAEDFB"/>
<path d="M279.078 255.144C285.139 255.144 290.053 250.23 290.053 244.169C290.053 238.108 285.139 233.194 279.078 233.194C273.017 233.194 268.103 238.108 268.103 244.169C268.103 250.23 273.017 255.144 279.078 255.144Z" fill="#69B8F0"/>
<path d="M279.078 303.163C285.139 303.163 290.053 298.249 290.053 292.188C290.053 286.127 285.139 281.213 279.078 281.213C273.017 281.213 268.103 286.127 268.103 292.188C268.103 298.249 273.017 303.163 279.078 303.163Z" fill="#69B8F0"/>
<path d="M279.078 244.169C281.401 244.169 283.284 242.286 283.284 239.963C283.284 237.64 281.401 235.757 279.078 235.757C276.755 235.757 274.872 237.64 274.872 239.963C274.872 242.286 276.755 244.169 279.078 244.169Z" fill="#FFD4BF"/>
<path d="M279.078 244.169C277.152 244.169 275.26 244.676 273.592 245.639C271.925 246.603 270.54 247.988 269.578 249.657C270.539 251.325 271.923 252.711 273.59 253.674C275.257 254.637 277.148 255.145 279.074 255.145C280.999 255.145 282.89 254.637 284.557 253.674C286.224 252.711 287.608 251.325 288.569 249.657C287.608 247.99 286.225 246.605 284.559 245.642C282.893 244.678 281.003 244.17 279.078 244.169Z" fill="#FF7F43"/>
<path d="M284.317 287.71H273.838C273.595 287.71 273.398 287.907 273.398 288.15V296.226C273.398 296.469 273.595 296.666 273.838 296.666H284.317C284.56 296.666 284.757 296.469 284.757 296.226V288.15C284.757 287.907 284.56 287.71 284.317 287.71Z" fill="#B4DCF8"/>
<path d="M272 287.448L278.235 293.683C278.345 293.793 278.476 293.881 278.62 293.941C278.764 294 278.918 294.031 279.074 294.031C279.23 294.031 279.384 294 279.528 293.941C279.672 293.881 279.803 293.793 279.913 293.683L286.148 287.448H272Z" stroke="#69B8F0" stroke-miterlimit="10"/>
<path d="M302.211 244.169H373.642" stroke="#B4DCF8" stroke-width="3" stroke-linecap="round" stroke-linejoin="round"/>
<path d="M302.211 292.188H390.267" stroke="#B4DCF8" stroke-width="3" stroke-linecap="round" stroke-linejoin="round"/>
<path d="M409.224 325.352L278.207 325.32C276.254 325.319 274.321 325.703 272.516 326.45C270.712 327.196 269.072 328.291 267.691 329.671C266.309 331.051 265.213 332.69 264.465 334.494C263.717 336.298 263.332 338.231 263.331 340.184C263.33 342.137 263.714 344.071 264.461 345.876C265.208 347.681 266.303 349.321 267.684 350.702C269.065 352.084 270.704 353.18 272.508 353.927C274.313 354.675 276.247 355.06 278.2 355.06L409.218 355.092C413.162 355.093 416.944 353.528 419.734 350.741C422.523 347.953 424.091 344.172 424.093 340.228C424.094 338.275 423.71 336.341 422.963 334.536C422.216 332.731 421.121 331.091 419.741 329.71C418.36 328.328 416.72 327.232 414.916 326.485C413.111 325.737 411.177 325.352 409.224 325.352Z" fill="#DAEDFB"/>
<path d="M409.224 373.37L278.207 373.338C274.264 373.336 270.481 374.901 267.691 377.688C264.902 380.475 263.333 384.257 263.331 388.2C263.33 390.153 263.714 392.088 264.461 393.893C265.207 395.698 266.302 397.338 267.683 398.719C269.064 400.101 270.704 401.197 272.508 401.945C274.313 402.693 276.247 403.078 278.2 403.078L409.218 403.11C411.171 403.111 413.105 402.727 414.909 401.981C416.713 401.234 418.353 400.139 419.734 398.759C421.116 397.379 422.212 395.74 422.959 393.936C423.707 392.132 424.093 390.199 424.093 388.246C424.094 386.293 423.71 384.359 422.963 382.554C422.216 380.749 421.121 379.109 419.74 377.728C418.359 376.347 416.72 375.251 414.915 374.503C413.111 373.755 411.177 373.37 409.224 373.37Z" fill="#DAEDFB"/>
<path d="M279.078 351.181C285.139 351.181 290.053 346.267 290.053 340.206C290.053 334.145 285.139 329.231 279.078 329.231C273.017 329.231 268.103 334.145 268.103 340.206C268.103 346.267 273.017 351.181 279.078 351.181Z" fill="#69B8F0"/>
<path d="M279.078 399.199C285.139 399.199 290.053 394.285 290.053 388.224C290.053 382.163 285.139 377.249 279.078 377.249C273.017 377.249 268.103 382.163 268.103 388.224C268.103 394.285 273.017 399.199 279.078 399.199Z" fill="#69B8F0"/>
<path d="M311.995 340.206H385.375" stroke="#B4DCF8" stroke-width="3" stroke-linecap="round" stroke-linejoin="round"/>
<path d="M311.995 388.224H385.375" stroke="#B4DCF8" stroke-width="3" stroke-linecap="round" stroke-linejoin="round"/>
<path d="M279.978 335.656C280.755 335.656 281.501 335.965 282.05 336.514C282.6 337.064 282.909 337.81 282.909 338.587V345.418H277.048V338.587C277.048 337.81 277.357 337.064 277.906 336.515C278.455 335.965 279.201 335.656 279.978 335.656Z" stroke="#8ECAF4" stroke-miterlimit="10"/>
<path d="M284.378 340.166H275.578C275.398 340.166 275.252 340.312 275.252 340.492V345.74C275.252 345.92 275.398 346.066 275.578 346.066H284.378C284.558 346.066 284.704 345.92 284.704 345.74V340.492C284.704 340.312 284.558 340.166 284.378 340.166Z" fill="#B4DCF8"/>
<path d="M279.978 380.652C280.755 380.652 281.501 380.961 282.05 381.51C282.6 382.06 282.909 382.806 282.909 383.583V390.414H277.048V383.583C277.048 382.806 277.357 382.06 277.906 381.511C278.455 380.961 279.201 380.652 279.978 380.652Z" stroke="#8ECAF4" stroke-miterlimit="10"/>
<path d="M284.378 385.162H275.578C275.398 385.162 275.252 385.308 275.252 385.488V390.736C275.252 390.916 275.398 391.062 275.578 391.062H284.378C284.558 391.062 284.704 390.916 284.704 390.736V385.488C284.704 385.308 284.558 385.162 284.378 385.162Z" fill="#B4DCF8"/>
</g>
<defs>
<linearGradient id="paint0_linear_640_7253" x1="33.593" y1="395.29" x2="290.066" y2="253.581" gradientUnits="userSpaceOnUse">
<stop stop-color="#FFD4BF" stop-opacity="0"/>
<stop offset="0.101" stop-color="#FFD4BF" stop-opacity="0.069"/>
<stop offset="0.304" stop-color="#FFD4BF" stop-opacity="0.249"/>
<stop offset="0.589" stop-color="#FFD4BF" stop-opacity="0.538"/>
<stop offset="0.942" stop-color="#FFD4BF" stop-opacity="0.933"/>
<stop offset="1" stop-color="#FFD4BF"/>
</linearGradient>
<linearGradient id="paint1_linear_640_7253" x1="151.49" y1="445.948" x2="381.019" y2="255.339" gradientUnits="userSpaceOnUse">
<stop stop-color="#FFBE92" stop-opacity="0"/>
<stop offset="0.101" stop-color="#FFBE92" stop-opacity="0.069"/>
<stop offset="0.304" stop-color="#FFBE92" stop-opacity="0.249"/>
<stop offset="0.589" stop-color="#FFBE92" stop-opacity="0.538"/>
<stop offset="0.942" stop-color="#FFBE92" stop-opacity="0.933"/>
<stop offset="1" stop-color="#FFBE92"/>
</linearGradient>
<linearGradient id="paint2_linear_640_7253" x1="322.221" y1="165.928" x2="356.99" y2="165.928" gradientUnits="userSpaceOnUse">
<stop stop-color="#FE7D24"/>
<stop offset="1" stop-color="#FF5100"/>
</linearGradient>
<clipPath id="clip0_640_7253">
<rect width="660" height="560" fill="white"/>
</clipPath>
</defs>
</svg>
