<svg data-v-423bf9ae="" xmlns="http://www.w3.org/2000/svg" viewBox="0 0 431 90" class="iconLeft"><!----><!----><!----><g data-v-423bf9ae="" id="5cbac686-5bd2-49a3-8ce1-1938944b09eb" fill="#000000" transform="matrix(5.110732222809175,0,0,5.110732222809175,107.13798371341016,-12.853489162678038)"><path d="M3.91 11.52L3.32 11.33L3.32 11.33Q2.70 11.12 2.20 10.90L2.20 10.90L2.20 10.90Q1.69 10.68 1.33 10.37L1.33 10.37L1.33 10.37Q0.97 10.07 0.76 9.64L0.76 9.64L0.76 9.64Q0.56 9.21 0.56 8.60L0.56 8.60L0.56 8.60Q0.56 7.41 1.48 6.69L1.48 6.69L1.48 6.69Q2.39 5.98 4.05 5.98L4.05 5.98L4.05 5.98Q4.65 5.98 5.17 6.06L5.17 6.06L5.17 6.06Q5.68 6.15 6.05 6.32L6.05 6.32L6.05 6.32Q6.43 6.50 6.64 6.77L6.64 6.77L6.64 6.77Q6.85 7.04 6.85 7.41L6.85 7.41L6.85 7.41Q6.85 7.77 6.68 8.03L6.68 8.03L6.68 8.03Q6.51 8.29 6.27 8.47L6.27 8.47L6.27 8.47Q5.96 8.27 5.45 8.13L5.45 8.13L5.45 8.13Q4.93 7.98 4.31 7.98L4.31 7.98L4.31 7.98Q3.68 7.98 3.39 8.16L3.39 8.16L3.39 8.16Q3.09 8.33 3.09 8.60L3.09 8.60L3.09 8.60Q3.09 8.81 3.28 8.94L3.28 8.94L3.28 8.94Q3.46 9.07 3.82 9.18L3.82 9.18L4.56 9.42L4.56 9.42Q5.88 9.84 6.59 10.49L6.59 10.49L6.59 10.49Q7.29 11.14 7.29 12.26L7.29 12.26L7.29 12.26Q7.29 13.45 6.36 14.19L6.36 14.19L6.36 14.19Q5.42 14.92 3.60 14.92L3.60 14.92L3.60 14.92Q2.95 14.92 2.40 14.82L2.40 14.82L2.40 14.82Q1.85 14.71 1.44 14.51L1.44 14.51L1.44 14.51Q1.02 14.31 0.79 14.01L0.79 14.01L0.79 14.01Q0.56 13.71 0.56 13.31L0.56 13.31L0.56 13.31Q0.56 12.91 0.80 12.62L0.80 12.62L0.80 12.62Q1.04 12.33 1.32 12.18L1.32 12.18L1.32 12.18Q1.71 12.49 2.27 12.71L2.27 12.71L2.27 12.71Q2.84 12.94 3.51 12.94L3.51 12.94L3.51 12.94Q4.20 12.94 4.48 12.73L4.48 12.73L4.48 12.73Q4.76 12.52 4.76 12.24L4.76 12.24L4.76 12.24Q4.76 11.96 4.54 11.81L4.54 11.81L4.54 11.81Q4.31 11.66 3.91 11.52L3.91 11.52ZM12.31 9.56L12.31 9.56L12.31 9.56Q11.96 9.56 11.64 9.67L11.64 9.67L11.64 9.67Q11.33 9.79 11.10 10.00L11.10 10.00L11.10 10.00Q10.86 10.22 10.72 10.54L10.72 10.54L10.72 10.54Q10.58 10.86 10.58 11.30L10.58 11.30L10.58 11.30Q10.58 12.17 11.08 12.60L11.08 12.60L11.08 12.60Q11.58 13.03 12.29 13.03L12.29 13.03L12.29 13.03Q12.71 13.03 13.02 12.94L13.02 12.94L13.02 12.94Q13.33 12.84 13.57 12.73L13.57 12.73L13.57 12.73Q13.85 12.92 13.99 13.15L13.99 13.15L13.99 13.15Q14.13 13.38 14.13 13.71L14.13 13.71L14.13 13.71Q14.13 14.28 13.58 14.60L13.58 14.60L13.58 14.60Q13.03 14.91 12.07 14.91L12.07 14.91L12.07 14.91Q11.19 14.91 10.47 14.65L10.47 14.65L10.47 14.65Q9.76 14.39 9.25 13.92L9.25 13.92L9.25 13.92Q8.74 13.45 8.46 12.80L8.46 12.80L8.46 12.80Q8.18 12.14 8.18 11.34L8.18 11.34L8.18 11.34Q8.18 10.42 8.48 9.72L8.48 9.72L8.48 9.72Q8.78 9.03 9.30 8.58L9.30 8.58L9.30 8.58Q9.81 8.13 10.49 7.91L10.49 7.91L10.49 7.91Q11.17 7.69 11.93 7.69L11.93 7.69L11.93 7.69Q12.94 7.69 13.48 8.05L13.48 8.05L13.48 8.05Q14.03 8.41 14.03 8.99L14.03 8.99L14.03 8.99Q14.03 9.25 13.90 9.49L13.90 9.49L13.90 9.49Q13.78 9.72 13.61 9.88L13.61 9.88L13.61 9.88Q13.37 9.77 13.03 9.67L13.03 9.67L13.03 9.67Q12.70 9.56 12.31 9.56ZM17.70 9.91L17.70 14.69L17.70 14.69Q17.56 14.73 17.26 14.77L17.26 14.77L17.26 14.77Q16.95 14.81 16.63 14.81L16.63 14.81L16.63 14.81Q16.32 14.81 16.08 14.77L16.08 14.77L16.08 14.77Q15.83 14.73 15.67 14.60L15.67 14.60L15.67 14.60Q15.50 14.48 15.41 14.26L15.41 14.26L15.41 14.26Q15.32 14.04 15.32 13.69L15.32 13.69L15.32 9.49L15.32 9.49Q15.32 9.17 15.44 8.94L15.44 8.94L15.44 8.94Q15.55 8.71 15.78 8.53L15.78 8.53L15.78 8.53Q16.00 8.34 16.33 8.20L16.33 8.20L16.33 8.20Q16.66 8.05 17.04 7.94L17.04 7.94L17.04 7.94Q17.42 7.83 17.82 7.76L17.82 7.76L17.82 7.76Q18.23 7.70 18.63 7.70L18.63 7.70L18.63 7.70Q19.31 7.70 19.70 7.96L19.70 7.96L19.70 7.96Q20.09 8.22 20.09 8.81L20.09 8.81L20.09 8.81Q20.09 9.00 20.03 9.19L20.03 9.19L20.03 9.19Q19.98 9.38 19.89 9.53L19.89 9.53L19.89 9.53Q19.60 9.53 19.29 9.56L19.29 9.56L19.29 9.56Q18.98 9.59 18.69 9.65L18.69 9.65L18.69 9.65Q18.40 9.70 18.14 9.77L18.14 9.77L18.14 9.77Q17.88 9.83 17.70 9.91L17.70 9.91ZM23.77 13.19L23.77 13.19L23.77 13.19Q24.01 13.19 24.30 13.14L24.30 13.14L24.30 13.14Q24.58 13.09 24.72 13.01L24.72 13.01L24.72 11.89L23.72 11.97L23.72 11.97Q23.32 12.00 23.07 12.14L23.07 12.14L23.07 12.14Q22.82 12.28 22.82 12.56L22.82 12.56L22.82 12.56Q22.82 12.84 23.04 13.01L23.04 13.01L23.04 13.01Q23.25 13.19 23.77 13.19ZM23.66 7.69L23.66 7.69L23.66 7.69Q24.42 7.69 25.04 7.84L25.04 7.84L25.04 7.84Q25.66 7.99 26.10 8.31L26.10 8.31L26.10 8.31Q26.54 8.62 26.78 9.11L26.78 9.11L26.78 9.11Q27.02 9.59 27.02 10.25L27.02 10.25L27.02 13.38L27.02 13.38Q27.02 13.75 26.82 13.98L26.82 13.98L26.82 13.98Q26.61 14.21 26.33 14.38L26.33 14.38L26.33 14.38Q25.42 14.92 23.77 14.92L23.77 14.92L23.77 14.92Q23.03 14.92 22.44 14.78L22.44 14.78L22.44 14.78Q21.84 14.64 21.41 14.36L21.41 14.36L21.41 14.36Q20.99 14.08 20.76 13.65L20.76 13.65L20.76 13.65Q20.52 13.22 20.52 12.64L20.52 12.64L20.52 12.64Q20.52 11.68 21.10 11.16L21.10 11.16L21.10 11.16Q21.67 10.64 22.88 10.51L22.88 10.51L24.71 10.32L24.71 10.22L24.71 10.22Q24.71 9.81 24.35 9.64L24.35 9.64L24.35 9.64Q24.00 9.46 23.32 9.46L23.32 9.46L23.32 9.46Q22.79 9.46 22.29 9.58L22.29 9.58L22.29 9.58Q21.78 9.69 21.38 9.86L21.38 9.86L21.38 9.86Q21.20 9.73 21.07 9.47L21.07 9.47L21.07 9.47Q20.94 9.21 20.94 8.93L20.94 8.93L20.94 8.93Q20.94 8.57 21.12 8.35L21.12 8.35L21.12 8.35Q21.29 8.13 21.66 7.98L21.66 7.98L21.66 7.98Q22.06 7.83 22.62 7.76L22.62 7.76L22.62 7.76Q23.17 7.69 23.66 7.69ZM31.60 7.69L31.60 7.69L31.60 7.69Q32.44 7.69 33.16 7.90L33.16 7.90L33.16 7.90Q33.88 8.12 34.40 8.57L34.40 8.57L34.40 8.57Q34.92 9.02 35.21 9.70L35.21 9.70L35.21 9.70Q35.50 10.37 35.50 11.31L35.50 11.31L35.50 11.31Q35.50 12.21 35.25 12.88L35.25 12.88L35.25 12.88Q35 13.55 34.54 14.01L34.54 14.01L34.54 14.01Q34.08 14.46 33.43 14.69L33.43 14.69L33.43 14.69Q32.77 14.91 31.98 14.91L31.98 14.91L31.98 14.91Q31.37 14.91 30.86 14.73L30.86 14.73L30.86 17.05L30.86 17.05Q30.72 17.09 30.41 17.14L30.41 17.14L30.41 17.14Q30.10 17.19 29.78 17.19L29.78 17.19L29.78 17.19Q29.47 17.19 29.23 17.15L29.23 17.15L29.23 17.15Q28.98 17.11 28.81 16.98L28.81 16.98L28.81 16.98Q28.64 16.86 28.56 16.64L28.56 16.64L28.56 16.64Q28.48 16.42 28.48 16.07L28.48 16.07L28.48 9.35L28.48 9.35Q28.48 8.97 28.64 8.74L28.64 8.74L28.64 8.74Q28.80 8.50 29.08 8.30L29.08 8.30L29.08 8.30Q29.51 8.02 30.16 7.85L30.16 7.85L30.16 7.85Q30.80 7.69 31.60 7.69ZM31.63 13.03L31.63 13.03L31.63 13.03Q33.07 13.03 33.07 11.31L33.07 11.31L33.07 11.31Q33.07 10.42 32.71 9.98L32.71 9.98L32.71 9.98Q32.35 9.55 31.68 9.55L31.68 9.55L31.68 9.55Q31.42 9.55 31.21 9.61L31.21 9.61L31.21 9.61Q31.00 9.67 30.84 9.76L30.84 9.76L30.84 12.84L30.84 12.84Q31.01 12.92 31.21 12.98L31.21 12.98L31.21 12.98Q31.40 13.03 31.63 13.03ZM40.60 11.80L40.60 14.64L40.60 14.64Q40.45 14.69 40.12 14.73L40.12 14.73L40.12 14.73Q39.80 14.77 39.49 14.77L39.49 14.77L39.49 14.77Q38.85 14.77 38.53 14.55L38.53 14.55L38.53 14.55Q38.21 14.34 38.21 13.64L38.21 13.64L38.21 11.75L38.21 11.75Q37.86 11.23 37.45 10.60L37.45 10.60L37.45 10.60Q37.04 9.97 36.65 9.31L36.65 9.31L36.65 9.31Q36.26 8.65 35.92 8.02L35.92 8.02L35.92 8.02Q35.59 7.38 35.38 6.85L35.38 6.85L35.38 6.85Q35.56 6.59 35.88 6.38L35.88 6.38L35.88 6.38Q36.19 6.17 36.65 6.17L36.65 6.17L36.65 6.17Q37.20 6.17 37.54 6.40L37.54 6.40L37.54 6.40Q37.88 6.62 38.19 7.24L38.19 7.24L39.35 9.58L39.44 9.58L39.44 9.58Q39.63 9.14 39.78 8.79L39.78 8.79L39.78 8.79Q39.93 8.43 40.07 8.07L40.07 8.07L40.07 8.07Q40.21 7.71 40.36 7.33L40.36 7.33L40.36 7.33Q40.52 6.94 40.71 6.44L40.71 6.44L40.71 6.44Q40.96 6.31 41.27 6.24L41.27 6.24L41.27 6.24Q41.58 6.17 41.86 6.17L41.86 6.17L41.86 6.17Q42.35 6.17 42.69 6.43L42.69 6.43L42.69 6.43Q43.04 6.69 43.04 7.21L43.04 7.21L43.04 7.21Q43.04 7.38 42.97 7.62L42.97 7.62L42.97 7.62Q42.90 7.85 42.64 8.34L42.64 8.34L42.64 8.34Q42.39 8.82 41.91 9.65L41.91 9.65L41.91 9.65Q41.43 10.47 40.60 11.80L40.60 11.80ZM46.35 13.19L46.35 13.19L46.35 13.19Q46.59 13.19 46.88 13.14L46.88 13.14L46.88 13.14Q47.17 13.09 47.31 13.01L47.31 13.01L47.31 11.89L46.30 11.97L46.30 11.97Q45.91 12.00 45.65 12.14L45.65 12.14L45.65 12.14Q45.40 12.28 45.40 12.56L45.40 12.56L45.40 12.56Q45.40 12.84 45.62 13.01L45.62 13.01L45.62 13.01Q45.84 13.19 46.35 13.19ZM46.24 7.69L46.24 7.69L46.24 7.69Q47.00 7.69 47.62 7.84L47.62 7.84L47.62 7.84Q48.24 7.99 48.69 8.31L48.69 8.31L48.69 8.31Q49.13 8.62 49.36 9.11L49.36 9.11L49.36 9.11Q49.60 9.59 49.60 10.25L49.60 10.25L49.60 13.38L49.60 13.38Q49.60 13.75 49.40 13.98L49.40 13.98L49.40 13.98Q49.20 14.21 48.92 14.38L48.92 14.38L48.92 14.38Q48.01 14.92 46.35 14.92L46.35 14.92L46.35 14.92Q45.61 14.92 45.02 14.78L45.02 14.78L45.02 14.78Q44.42 14.64 43.99 14.36L43.99 14.36L43.99 14.36Q43.57 14.08 43.34 13.65L43.34 13.65L43.34 13.65Q43.11 13.22 43.11 12.64L43.11 12.64L43.11 12.64Q43.11 11.68 43.68 11.16L43.68 11.16L43.68 11.16Q44.25 10.64 45.46 10.51L45.46 10.51L47.29 10.32L47.29 10.22L47.29 10.22Q47.29 9.81 46.94 9.64L46.94 9.64L46.94 9.64Q46.58 9.46 45.91 9.46L45.91 9.46L45.91 9.46Q45.37 9.46 44.87 9.58L44.87 9.58L44.87 9.58Q44.37 9.69 43.96 9.86L43.96 9.86L43.96 9.86Q43.78 9.73 43.65 9.47L43.65 9.47L43.65 9.47Q43.53 9.21 43.53 8.93L43.53 8.93L43.53 8.93Q43.53 8.57 43.70 8.35L43.70 8.35L43.70 8.35Q43.88 8.13 44.24 7.98L44.24 7.98L44.24 7.98Q44.65 7.83 45.20 7.76L45.20 7.76L45.20 7.76Q45.75 7.69 46.24 7.69ZM53.44 9.91L53.44 14.69L53.44 14.69Q53.30 14.73 53.00 14.77L53.00 14.77L53.00 14.77Q52.70 14.81 52.37 14.81L52.37 14.81L52.37 14.81Q52.07 14.81 51.82 14.77L51.82 14.77L51.82 14.77Q51.58 14.73 51.41 14.60L51.41 14.60L51.41 14.60Q51.24 14.48 51.15 14.26L51.15 14.26L51.15 14.26Q51.06 14.04 51.06 13.69L51.06 13.69L51.06 9.49L51.06 9.49Q51.06 9.17 51.18 8.94L51.18 8.94L51.18 8.94Q51.30 8.71 51.52 8.53L51.52 8.53L51.52 8.53Q51.74 8.34 52.07 8.20L52.07 8.20L52.07 8.20Q52.40 8.05 52.78 7.94L52.78 7.94L52.78 7.94Q53.16 7.83 53.56 7.76L53.56 7.76L53.56 7.76Q53.97 7.70 54.38 7.70L54.38 7.70L54.38 7.70Q55.05 7.70 55.44 7.96L55.44 7.96L55.44 7.96Q55.83 8.22 55.83 8.81L55.83 8.81L55.83 8.81Q55.83 9.00 55.78 9.19L55.78 9.19L55.78 9.19Q55.72 9.38 55.64 9.53L55.64 9.53L55.64 9.53Q55.34 9.53 55.03 9.56L55.03 9.56L55.03 9.56Q54.73 9.59 54.43 9.65L54.43 9.65L54.43 9.65Q54.14 9.70 53.88 9.77L53.88 9.77L53.88 9.77Q53.62 9.83 53.44 9.91L53.44 9.91ZM56.25 11.30L56.25 11.30L56.25 11.30Q56.25 10.37 56.53 9.70L56.53 9.70L56.53 9.70Q56.81 9.02 57.31 8.57L57.31 8.57L57.31 8.57Q57.81 8.12 58.47 7.90L58.47 7.90L58.47 7.90Q59.14 7.69 59.91 7.69L59.91 7.69L59.91 7.69Q60.19 7.69 60.45 7.74L60.45 7.74L60.45 7.74Q60.72 7.78 60.89 7.85L60.89 7.85L60.89 5.59L60.89 5.59Q61.03 5.54 61.33 5.50L61.33 5.50L61.33 5.50Q61.64 5.45 61.96 5.45L61.96 5.45L61.96 5.45Q62.27 5.45 62.52 5.49L62.52 5.49L62.52 5.49Q62.76 5.53 62.93 5.66L62.93 5.66L62.93 5.66Q63.10 5.78 63.18 6.00L63.18 6.00L63.18 6.00Q63.27 6.22 63.27 6.57L63.27 6.57L63.27 13.20L63.27 13.20Q63.27 13.86 62.65 14.25L62.65 14.25L62.65 14.25Q62.24 14.52 61.60 14.72L61.60 14.72L61.60 14.72Q60.96 14.92 60.12 14.92L60.12 14.92L60.12 14.92Q59.21 14.92 58.48 14.67L58.48 14.67L58.48 14.67Q57.76 14.42 57.27 13.94L57.27 13.94L57.27 13.94Q56.77 13.47 56.51 12.80L56.51 12.80L56.51 12.80Q56.25 12.14 56.25 11.30ZM60.23 9.55L60.23 9.55L60.23 9.55Q59.47 9.55 59.07 9.98L59.07 9.98L59.07 9.98Q58.66 10.42 58.66 11.30L58.66 11.30L58.66 11.30Q58.66 12.17 59.04 12.61L59.04 12.61L59.04 12.61Q59.42 13.05 60.13 13.05L60.13 13.05L60.13 13.05Q60.38 13.05 60.59 12.97L60.59 12.97L60.59 12.97Q60.79 12.89 60.90 12.80L60.90 12.80L60.90 9.72L60.90 9.72Q60.62 9.55 60.23 9.55Z"></path></g><!----><g data-v-423bf9ae="" id="ae382013-a464-4eb0-a96a-1f3acaeb45fd" transform="matrix(2.8125,0,0,2.8125,0,0)" stroke="none" fill="#87544E"><path d="M15.965 16.258l.707-.707 10.39 10.39-.707.707z"></path><path d="M4.935 26.357L26.018 5.274l.707.707L5.642 27.065z"></path><path d="M31 1v4.194h-4.194V1H31m1-1h-6.194v6.194H32V0zM31 26.806V31h-4.194v-4.194H31m1-1h-6.194V32H32v-6.194zM5.194 26.806V31H1v-4.194h4.194m1-1H0V32h6.194v-6.194z"></path></g><!----></svg>